<?xml version="1.0" standalone="no"?>
<!DOCTYPE svg PUBLIC "-//W3C//DTD SVG 20010904//EN"
 "http://www.w3.org/TR/2001/REC-SVG-20010904/DTD/svg10.dtd">
<svg version="1.0" xmlns="http://www.w3.org/2000/svg"
 width="470.000000pt" height="470.000000pt" viewBox="0 0 470.000000 470.000000"
 preserveAspectRatio="xMidYMid meet">
<metadata>
Created by potrace 1.14, written by Peter Selinger 2001-2017
</metadata>
<g transform="translate(0.000000,470.000000) scale(0.100000,-0.100000)"
fill="#000000" stroke="none">
<path d="M1966 4115 c-5 -14 -9 -15 -21 -5 -9 7 -15 8 -15 2 0 -5 -7 -13 -16
-16 -8 -3 -12 -2 -9 4 3 5 -4 8 -15 7 -11 -1 -20 -5 -20 -10 0 -5 -7 -7 -15
-3 -8 3 -15 1 -15 -4 0 -5 -7 -7 -16 -3 -9 3 -20 0 -25 -8 -6 -9 -9 -10 -9 -2
0 13 -45 3 -84 -18 -12 -7 -16 -7 -12 0 4 6 -6 4 -21 -4 -15 -8 -38 -15 -51
-15 -14 0 -21 -4 -16 -11 4 -8 0 -9 -15 -4 -12 4 -21 2 -21 -4 0 -6 -3 -10 -7
-10 -22 4 -33 -2 -27 -13 4 -7 4 -10 -1 -6 -4 4 -23 1 -42 -7 -19 -8 -40 -12
-46 -8 -6 4 -7 1 -2 -7 6 -10 3 -12 -12 -8 -15 4 -20 1 -19 -11 1 -9 -6 -15
-16 -15 -10 1 -18 -2 -18 -8 0 -5 -4 -7 -9 -3 -5 3 -16 -2 -25 -10 -8 -9 -18
-16 -21 -16 -16 1 -34 -13 -28 -22 3 -6 1 -7 -5 -3 -7 4 -23 -4 -37 -18 -14
-15 -30 -26 -36 -26 -17 0 -79 -46 -72 -53 3 -4 -1 -7 -10 -7 -9 0 -17 -4 -17
-10 0 -5 -6 -10 -13 -10 -14 0 -53 -41 -49 -52 1 -4 -6 -4 -15 -1 -11 4 -14 3
-9 -5 4 -7 3 -12 -3 -12 -17 0 -51 -42 -44 -54 4 -6 -1 -5 -10 3 -12 9 -17 10
-17 2 0 -6 -15 -26 -33 -43 -17 -18 -32 -35 -32 -39 0 -8 -22 -32 -62 -71 -13
-12 -23 -28 -23 -35 0 -7 -5 -13 -11 -13 -6 0 -9 -7 -5 -15 3 -8 2 -14 -2 -14
-20 3 -33 -2 -27 -11 3 -5 1 -10 -5 -10 -6 0 -9 -4 -6 -9 3 -5 -1 -11 -9 -15
-8 -3 -15 -14 -15 -25 0 -10 -7 -22 -16 -25 -8 -3 -13 -10 -9 -16 3 -5 -3 -17
-15 -27 -11 -10 -20 -22 -20 -28 0 -5 5 -3 10 5 5 8 10 10 10 4 0 -6 -10 -19
-23 -28 -12 -9 -15 -14 -8 -10 9 4 5 -7 -9 -26 -13 -19 -18 -30 -9 -26 9 5 9
3 -2 -6 -9 -7 -14 -19 -12 -25 3 -7 0 -13 -6 -13 -6 0 -11 -7 -11 -16 0 -9 -5
-12 -12 -8 -10 6 -10 4 0 -8 11 -14 10 -18 -5 -27 -14 -8 -15 -10 -3 -11 12 0
12 -2 2 -9 -7 -4 -14 -14 -15 -22 -2 -8 -6 -20 -10 -26 -5 -7 -5 -13 -1 -13 3
0 1 -7 -6 -15 -6 -8 -9 -19 -5 -25 3 -5 2 -10 -3 -10 -8 0 -12 -14 -13 -52 0
-10 -5 -18 -10 -18 -6 0 -8 -4 -5 -9 4 -5 0 -12 -6 -14 -10 -4 -9 -8 2 -16 11
-8 12 -11 2 -11 -7 0 -10 -4 -7 -10 3 -5 0 -10 -7 -10 -9 0 -9 -3 2 -10 11 -7
11 -10 2 -10 -7 0 -11 -4 -7 -9 3 -5 1 -12 -5 -16 -5 -3 -7 -17 -4 -31 4 -16
2 -24 -7 -24 -11 0 -11 -3 1 -10 12 -8 12 -10 1 -10 -10 0 -11 -3 -2 -13 8
-10 7 -17 -1 -25 -7 -7 -8 -12 -4 -12 5 0 2 -8 -5 -17 -8 -9 -9 -14 -3 -10 6
4 10 -2 8 -16 -1 -12 -3 -22 -4 -22 -1 0 -3 -10 -6 -23 -3 -17 -1 -21 8 -16 9
5 8 2 -1 -9 -8 -10 -11 -20 -8 -23 3 -3 2 -17 -3 -30 -7 -18 -5 -26 8 -33 9
-6 12 -11 5 -11 -8 0 -12 -14 -11 -40 1 -25 5 -37 12 -33 6 4 5 0 -1 -8 -10
-12 -10 -18 -1 -27 9 -9 9 -12 -1 -12 -11 0 -11 -3 0 -17 12 -15 12 -16 -1 -8
-13 8 -13 7 -1 -8 11 -14 11 -17 0 -17 -9 0 -10 -3 -4 -8 10 -7 18 -44 19 -89
0 -13 4 -23 9 -23 5 0 6 -7 3 -16 -4 -10 1 -22 11 -31 10 -8 13 -12 6 -9 -8 5
-11 -3 -9 -21 1 -16 7 -27 14 -26 6 2 9 -4 6 -11 -3 -8 0 -24 6 -36 8 -15 8
-20 1 -16 -7 5 -9 1 -5 -8 3 -9 11 -16 18 -16 6 0 4 -4 -4 -10 -12 -8 -12 -10
3 -16 13 -5 15 -10 7 -19 -8 -9 -8 -15 0 -20 6 -3 8 -11 4 -16 -3 -5 0 -8 6
-7 12 3 17 -12 22 -54 1 -10 5 -18 8 -18 3 0 11 -9 18 -21 8 -12 9 -18 3 -14
-6 3 -11 1 -11 -4 0 -6 5 -11 10 -11 6 0 10 -9 10 -20 0 -11 7 -23 15 -26 8
-4 13 -10 10 -14 -3 -5 -1 -11 5 -15 5 -3 10 -15 10 -26 0 -11 5 -17 10 -14 6
3 10 -1 10 -9 0 -9 6 -16 13 -16 9 0 9 -2 -1 -9 -11 -7 -11 -9 2 -14 16 -6 41
-54 38 -69 -1 -5 5 -8 13 -8 8 0 15 -9 15 -21 0 -11 4 -17 10 -14 6 3 10 -1
10 -9 0 -9 5 -16 10 -16 6 0 10 -7 10 -15 0 -8 9 -20 20 -27 11 -7 20 -18 20
-25 0 -7 7 -13 16 -13 8 0 12 -4 9 -10 -3 -5 -1 -10 4 -10 6 0 11 -7 11 -15 0
-8 3 -14 8 -14 22 4 32 -3 32 -21 0 -11 4 -20 10 -20 18 0 80 -62 73 -74 -3
-6 -3 -8 2 -4 9 8 35 -15 35 -31 0 -6 9 -11 20 -11 11 0 20 -7 20 -15 0 -8 6
-15 14 -15 7 0 25 -12 39 -26 15 -15 31 -23 38 -18 8 4 9 3 5 -4 -4 -7 -2 -12
4 -12 6 0 8 -5 5 -10 -4 -6 -3 -10 2 -9 21 4 34 -2 27 -13 -5 -8 -2 -9 9 -5
12 4 17 1 17 -11 0 -12 3 -13 8 -5 6 9 12 7 22 -7 8 -11 22 -20 31 -20 16 0
43 -23 35 -31 -2 -2 7 -5 22 -6 14 0 31 -9 38 -18 7 -9 15 -16 18 -15 16 2 56
-13 56 -21 0 -5 6 -8 13 -6 6 1 11 -4 9 -12 -3 -12 0 -12 12 -1 12 9 16 9 16
1 0 -7 4 -10 9 -7 5 3 14 -1 21 -9 7 -9 21 -13 31 -10 9 3 20 1 24 -5 4 -6 13
-9 21 -6 7 3 18 -3 23 -12 7 -11 11 -12 11 -4 0 7 5 10 10 7 6 -4 7 -12 3 -18
-4 -8 -1 -7 9 1 10 8 17 9 20 3 1 -6 18 -11 36 -13 17 -1 32 -5 32 -8 0 -5 10
-7 65 -12 14 -1 25 -7 25 -12 0 -6 5 -4 10 4 5 8 10 10 10 4 0 -11 15 -14 68
-14 23 1 31 -3 27 -11 -6 -8 -2 -8 12 -1 11 6 25 7 33 2 8 -5 21 -5 31 1 12 6
20 5 25 -2 3 -6 14 -9 24 -6 10 2 24 1 31 -4 8 -5 17 -3 21 4 6 9 8 9 8 0 0
-7 5 -13 11 -13 5 0 8 4 4 9 -3 6 6 7 22 2 16 -5 39 -6 52 -4 14 2 28 -2 33
-9 4 -8 8 -8 8 -2 0 14 31 14 49 0 11 -8 13 -8 7 2 -8 14 3 16 23 3 9 -6 22
-6 33 0 13 7 18 6 18 -3 0 -10 3 -9 9 1 8 12 12 12 24 2 11 -9 17 -9 22 0 6 8
10 7 16 -2 7 -11 9 -11 9 -1 0 9 5 10 19 2 14 -7 22 -7 26 0 5 8 11 7 21 -1
11 -9 14 -9 14 1 0 9 3 10 13 1 8 -6 17 -8 21 -4 11 11 36 12 36 1 0 -6 6 -5
15 2 12 10 15 10 15 -1 0 -12 2 -12 9 0 5 7 11 9 14 4 7 -11 37 -11 55 1 7 4
12 2 12 -5 0 -9 3 -9 14 0 10 9 16 9 21 1 5 -8 11 -8 21 1 10 8 14 8 14 0 0
-7 8 -8 26 -1 14 6 23 6 20 2 -6 -10 25 -9 42 2 7 4 12 2 12 -6 0 -10 2 -10 8
-1 4 6 21 13 37 15 17 2 37 11 46 21 10 10 23 16 30 15 8 -2 13 3 11 11 -3 12
0 12 12 1 12 -9 16 -9 16 -1 0 7 5 9 10 6 6 -3 10 -1 10 6 0 8 4 8 13 2 6 -6
20 -9 29 -8 11 2 15 -2 11 -11 -3 -8 2 -17 11 -20 9 -3 13 -10 10 -15 -3 -5 2
-9 11 -9 10 0 13 -5 9 -12 -5 -7 -2 -9 8 -6 8 4 21 2 28 -2 9 -6 19 -2 28 8 7
9 11 12 8 5 -4 -8 16 -12 69 -15 45 -2 75 1 75 7 0 6 4 4 9 -4 7 -11 9 -11 14
0 3 9 6 9 6 2 1 -8 10 -9 30 -3 16 4 32 6 35 3 9 -10 86 -8 86 2 0 6 4 4 9 -4
6 -9 11 -10 15 -2 4 6 12 8 18 5 19 -12 88 -12 81 -1 -3 6 -1 7 6 3 19 -12 63
-18 57 -7 -3 5 2 8 12 7 11 -1 16 5 14 17 -2 9 2 17 9 17 8 0 8 4 -1 15 -8 10
-9 15 -1 15 7 0 8 8 2 24 -7 17 -5 28 7 41 9 10 12 15 5 11 -15 -8 -27 10 -13
19 8 5 8 11 0 20 -8 10 -8 15 0 20 8 5 7 11 -2 23 -10 12 -10 14 -1 8 9 -5 12
0 11 18 -1 15 -6 26 -11 26 -4 0 -5 5 -2 10 4 6 11 7 17 4 6 -4 6 0 -1 13 -6
11 -7 23 -4 27 3 3 1 6 -6 6 -7 0 -9 5 -6 10 4 6 9 8 13 6 11 -7 8 98 -3 106
-6 5 -6 8 2 8 7 0 10 11 7 29 -3 16 0 32 6 36 5 3 10 12 10 18 0 7 -4 6 -10
-3 -7 -11 -9 -6 -8 20 2 19 8 38 13 42 6 5 6 8 -2 8 -7 0 -9 13 -7 38 10 80
10 92 2 92 -5 0 -4 8 1 18 7 13 7 22 0 29 -8 8 -7 13 0 17 6 4 11 12 11 17 0
6 -5 7 -11 3 -8 -5 -8 -1 0 13 7 14 7 24 -2 33 -8 9 -8 11 -1 7 15 -9 27 20
12 29 -7 5 -8 2 -3 -6 6 -9 4 -11 -4 -5 -9 5 -10 10 -2 18 15 15 14 40 -1 31
-10 -6 -10 -4 0 8 7 8 9 24 5 33 -5 14 -3 16 8 10 10 -7 9 -1 -3 17 -17 26
-17 28 0 37 13 8 13 10 3 11 -11 0 -12 3 -3 12 7 7 8 17 1 30 -7 12 -6 18 1
18 8 0 8 6 0 20 -8 15 -8 20 1 20 9 0 9 3 0 14 -9 11 -8 17 3 29 14 13 14 16
0 21 -12 5 -13 10 -5 19 8 10 7 17 -2 27 -9 10 -9 11 1 6 7 -4 12 -2 12 6 0 8
-6 20 -12 27 -8 9 -8 11 -2 8 8 -5 11 5 10 33 -1 22 2 41 8 43 6 2 6 9 1 18
-13 19 -12 42 0 51 6 5 4 8 -5 8 -13 0 -13 1 0 10 12 8 12 10 1 10 -11 0 -11
3 -1 15 10 12 10 15 0 15 -10 0 -10 3 0 15 10 12 10 15 -1 15 -11 0 -11 2 1
10 13 9 13 10 0 10 -13 0 -13 1 0 10 13 9 13 10 0 10 -12 0 -13 2 -1 9 11 7
11 9 0 14 -11 4 -11 6 -1 6 10 1 10 6 1 22 -8 16 -8 20 1 14 9 -6 9 -2 1 14
-9 16 -9 21 0 21 9 0 9 3 0 14 -9 11 -9 16 0 21 8 6 7 10 -2 16 -12 7 -12 9 0
9 10 0 11 3 2 14 -9 11 -9 15 1 19 10 4 10 6 1 6 -7 1 -13 6 -13 12 0 5 6 7
13 3 7 -5 7 -1 -2 10 -13 15 -13 19 0 27 8 5 9 9 3 9 -6 0 -11 11 -11 25 0 15
4 22 11 19 6 -3 4 0 -4 8 -9 8 -15 29 -14 53 1 22 -5 50 -12 62 -10 16 -11 24
-2 29 7 5 8 3 3 -6 -6 -9 -4 -11 4 -6 9 6 9 12 -3 25 -9 10 -13 21 -10 24 4 4
1 14 -7 24 -12 15 -12 16 1 8 13 -8 13 -6 2 8 -8 9 -11 21 -8 26 4 5 1 13 -5
16 -5 4 -8 13 -5 21 3 8 1 14 -5 14 -6 0 -8 4 -4 9 3 5 1 12 -4 16 -5 3 -8 14
-6 25 2 11 -1 23 -7 26 -7 5 -8 2 -3 -6 5 -8 4 -11 -2 -7 -6 4 -9 18 -8 32 2
15 -3 29 -13 35 -13 7 -14 9 -3 10 11 0 10 4 -5 16 -10 8 -12 12 -4 8 12 -6
13 -4 3 7 -7 7 -13 21 -13 30 0 10 -5 21 -12 25 -7 5 -8 3 -3 -6 5 -9 4 -11
-4 -6 -6 4 -9 12 -6 17 9 13 -5 50 -16 44 -5 -3 -6 1 -3 9 3 9 1 16 -6 16 -6
0 -9 4 -5 10 3 5 -4 19 -15 30 -11 11 -18 25 -15 30 4 6 1 10 -4 10 -6 0 -11
7 -11 15 0 8 -4 15 -10 15 -5 0 -10 7 -10 15 0 9 -6 18 -14 21 -9 3 -12 12 -9
21 4 10 2 14 -4 10 -5 -3 -16 6 -24 21 -8 15 -22 34 -31 43 -10 9 -15 19 -11
23 3 3 -1 6 -11 6 -9 0 -15 4 -11 10 3 5 -10 25 -28 44 -19 19 -32 38 -29 41
3 3 -2 5 -11 5 -11 0 -17 8 -18 23 0 12 -3 17 -6 10 -3 -9 -10 -7 -25 7 -12
11 -17 24 -13 31 5 8 4 10 -4 5 -7 -5 -25 6 -46 28 -21 23 -35 31 -38 23 -4
-8 -6 -7 -6 3 -1 17 -35 50 -52 50 -5 0 -7 5 -4 10 3 6 -1 10 -10 10 -10 0
-13 5 -9 12 4 7 3 8 -4 4 -12 -7 -54 23 -47 34 2 4 -2 7 -10 8 -8 1 -22 3 -30
4 -8 1 -13 4 -10 6 9 9 -17 32 -37 32 -10 0 -16 5 -13 10 3 6 -3 10 -14 10
-13 0 -21 7 -21 18 0 14 -2 15 -10 2 -6 -10 -10 -11 -10 -3 0 7 -6 12 -12 10
-7 -1 -12 3 -11 10 1 6 -5 10 -15 9 -9 -2 -23 6 -30 16 -12 16 -16 17 -30 6
-12 -10 -14 -10 -8 0 4 7 1 12 -9 12 -9 0 -23 7 -32 15 -8 8 -19 13 -24 10 -5
-4 -9 -1 -9 4 0 6 -3 10 -7 10 -23 -4 -43 2 -38 11 4 6 3 10 -2 9 -22 -4 -54
2 -49 9 3 5 -5 8 -17 6 -12 -1 -33 5 -46 13 -13 8 -21 10 -17 4 4 -5 -6 -4
-21 4 -34 18 -47 19 -37 3 6 -9 3 -9 -9 0 -9 8 -22 10 -28 6 -8 -4 -9 -3 -5 4
5 8 -2 12 -18 12 -14 0 -26 6 -26 13 0 7 -3 8 -8 2 -11 -16 -54 -14 -48 2 4
10 1 11 -14 3 -11 -6 -21 -6 -25 -1 -5 10 -36 7 -54 -4 -5 -3 -15 0 -23 7 -16
16 -40 17 -50 3 -5 -7 -10 -7 -15 0 -11 14 -84 15 -76 1 5 -8 3 -8 -8 0 -20
15 -62 15 -71 1 -5 -7 -8 -8 -8 -1 0 6 -10 10 -22 8 -13 -1 -23 -3 -23 -4 0
-1 -8 -3 -17 -5 -10 -2 -18 2 -18 8 0 8 -3 8 -8 2 -11 -15 -34 -18 -42 -5 -5
8 -9 6 -14 -5z"/>
<path d="M970 1200 c0 -5 5 -10 11 -10 5 0 7 5 4 10 -3 6 -8 10 -11 10 -2 0
-4 -4 -4 -10z"/>
</g>
</svg>
